<svg xmlns="http://www.w3.org/2000/svg" xmlns:xlink="http://www.w3.org/1999/xlink" width="160" zoomAndPan="magnify" viewBox="0 0 120 30.000001" height="40" preserveAspectRatio="xMidYMid meet" version="1.0"><defs><g/><clipPath id="cdd435a02e"><rect x="0" width="28" y="0" height="27"/></clipPath><clipPath id="b49a4f1b03"><path d="M 19.285156 11.367188 L 25.28125 11.367188 L 25.28125 17.359375 L 19.285156 17.359375 Z M 19.285156 11.367188 " clip-rule="nonzero"/></clipPath><clipPath id="5ef9d5bb94"><path d="M 22.28125 11.367188 C 20.625 11.367188 19.285156 12.707031 19.285156 14.363281 C 19.285156 16.019531 20.625 17.359375 22.28125 17.359375 C 23.9375 17.359375 25.28125 16.019531 25.28125 14.363281 C 25.28125 12.707031 23.9375 11.367188 22.28125 11.367188 Z M 22.28125 11.367188 " clip-rule="nonzero"/></clipPath><clipPath id="0d4328d659"><path d="M 0.285156 0.367188 L 6.28125 0.367188 L 6.28125 6.359375 L 0.285156 6.359375 Z M 0.285156 0.367188 " clip-rule="nonzero"/></clipPath><clipPath id="141580e95d"><path d="M 3.28125 0.367188 C 1.625 0.367188 0.285156 1.707031 0.285156 3.363281 C 0.285156 5.019531 1.625 6.359375 3.28125 6.359375 C 4.9375 6.359375 6.28125 5.019531 6.28125 3.363281 C 6.28125 1.707031 4.9375 0.367188 3.28125 0.367188 Z M 3.28125 0.367188 " clip-rule="nonzero"/></clipPath><clipPath id="5169169c6b"><rect x="0" width="7" y="0" height="7"/></clipPath><clipPath id="3f6cfc66f8"><path d="M 21.046875 12.941406 L 23.71875 12.941406 L 23.71875 15.609375 L 21.046875 15.609375 Z M 21.046875 12.941406 " clip-rule="nonzero"/></clipPath><clipPath id="d2e5ea4fd2"><path d="M 23.046875 15.414062 L 23.03125 15.421875 C 22.621094 15.65625 22.117188 15.65625 21.710938 15.417969 C 21.300781 15.179688 21.046875 14.746094 21.046875 14.273438 C 21.046875 13.800781 21.300781 13.363281 21.710938 13.125 C 22.117188 12.886719 22.621094 12.886719 23.03125 13.121094 L 23.046875 13.128906 C 23.457031 13.363281 23.710938 13.800781 23.710938 14.273438 C 23.710938 14.742188 23.457031 15.179688 23.046875 15.414062 Z M 23.046875 15.414062 " clip-rule="nonzero"/></clipPath><clipPath id="e7af20b178"><path d="M 0.046875 0.941406 L 2.71875 0.941406 L 2.71875 3.609375 L 0.046875 3.609375 Z M 0.046875 0.941406 " clip-rule="nonzero"/></clipPath><clipPath id="c86e169c23"><path d="M 2.046875 3.414062 L 2.03125 3.421875 C 1.621094 3.65625 1.117188 3.65625 0.710938 3.417969 C 0.300781 3.179688 0.046875 2.746094 0.046875 2.273438 C 0.046875 1.800781 0.300781 1.363281 0.710938 1.125 C 1.117188 0.886719 1.621094 0.886719 2.03125 1.121094 L 2.046875 1.128906 C 2.457031 1.363281 2.710938 1.800781 2.710938 2.273438 C 2.710938 2.742188 2.457031 3.179688 2.046875 3.414062 Z M 2.046875 3.414062 " clip-rule="nonzero"/></clipPath><clipPath id="2f4728a34c"><rect x="0" width="3" y="0" height="4"/></clipPath><clipPath id="97b441086e"><path d="M 24 10 L 26 10 L 26 11 L 24 11 Z M 24 10 " clip-rule="nonzero"/></clipPath><clipPath id="2eb7cb0b83"><path d="M 27.050781 10.019531 L 26.554688 10.746094 L 24.371094 9.253906 L 24.867188 8.527344 Z M 27.050781 10.019531 " clip-rule="nonzero"/></clipPath><clipPath id="31f6d883e6"><path d="M 27.050781 10.019531 L 26.058594 11.476562 L 23.875 9.984375 L 24.867188 8.527344 Z M 27.050781 10.019531 " clip-rule="nonzero"/></clipPath><clipPath id="02ab302eb8"><path d="M 27.050781 10.019531 L 22.578125 16.570312 L 20.394531 15.082031 L 24.867188 8.527344 Z M 27.050781 10.019531 " clip-rule="nonzero"/></clipPath><clipPath id="e2688da646"><path d="M 24 8 L 27 8 L 27 11 L 24 11 Z M 24 8 " clip-rule="nonzero"/></clipPath><clipPath id="f081620fe7"><path d="M 27.050781 10.019531 L 26.554688 10.746094 L 24.371094 9.253906 L 24.867188 8.527344 Z M 27.050781 10.019531 " clip-rule="nonzero"/></clipPath><clipPath id="cb5c0e64e6"><path d="M 27.050781 10.019531 L 26.058594 11.476562 L 23.875 9.984375 L 24.867188 8.527344 Z M 27.050781 10.019531 " clip-rule="nonzero"/></clipPath><clipPath id="f57e6c7c82"><path d="M 27.050781 10.019531 L 22.578125 16.570312 L 20.394531 15.082031 L 24.867188 8.527344 Z M 27.050781 10.019531 " clip-rule="nonzero"/></clipPath><clipPath id="519dc4c458"><path d="M 0.660156 0 L 29.433594 0 L 29.433594 28.800781 L 0.660156 28.800781 Z M 0.660156 0 " clip-rule="nonzero"/></clipPath><clipPath id="5cb65c0758"><rect x="0" width="30" y="0" height="29"/></clipPath><clipPath id="5187815387"><rect x="0" width="86" y="0" height="26"/></clipPath></defs><g transform="matrix(1, 0, 0, 1, 2, 0.000000000000005692)"><g clip-path="url(#5cb65c0758)"><g transform="matrix(1, 0, 0, 1, 1, 0.000000000000005692)"><g clip-path="url(#cdd435a02e)"><g fill="#000000" fill-opacity="1"><g transform="translate(0.691777, 18.894356)"><g><path d="M 7.4375 0.234375 C 6.507812 0.234375 5.65625 0.0703125 4.875 -0.25 C 4.101562 -0.570312 3.429688 -1.023438 2.859375 -1.609375 C 2.285156 -2.191406 1.835938 -2.878906 1.515625 -3.671875 C 1.203125 -4.460938 1.046875 -5.332031 1.046875 -6.28125 C 1.046875 -7.226562 1.195312 -8.097656 1.5 -8.890625 C 1.8125 -9.679688 2.253906 -10.367188 2.828125 -10.953125 C 3.410156 -11.535156 4.085938 -11.988281 4.859375 -12.3125 C 5.628906 -12.632812 6.472656 -12.796875 7.390625 -12.796875 C 8.347656 -12.796875 9.234375 -12.625 10.046875 -12.28125 C 10.867188 -11.9375 11.570312 -11.453125 12.15625 -10.828125 C 12.75 -10.203125 13.179688 -9.476562 13.453125 -8.65625 L 11.71875 -8.65625 C 11.320312 -9.46875 10.753906 -10.097656 10.015625 -10.546875 C 9.273438 -10.992188 8.421875 -11.21875 7.453125 -11.21875 C 6.515625 -11.21875 5.679688 -11.007812 4.953125 -10.59375 C 4.234375 -10.175781 3.671875 -9.59375 3.265625 -8.84375 C 2.859375 -8.101562 2.65625 -7.25 2.65625 -6.28125 C 2.65625 -5.3125 2.859375 -4.457031 3.265625 -3.71875 C 3.679688 -2.976562 4.25 -2.394531 4.96875 -1.96875 C 5.695312 -1.550781 6.53125 -1.34375 7.46875 -1.34375 C 8.320312 -1.34375 9.078125 -1.507812 9.734375 -1.84375 C 10.390625 -2.1875 10.921875 -2.648438 11.328125 -3.234375 C 11.742188 -3.828125 12.007812 -4.519531 12.125 -5.3125 L 7 -5.3125 L 7 -6.828125 L 13.828125 -6.828125 C 13.847656 -5.441406 13.59375 -4.21875 13.0625 -3.15625 C 12.53125 -2.101562 11.78125 -1.273438 10.8125 -0.671875 C 9.851562 -0.0664062 8.726562 0.234375 7.4375 0.234375 Z M 7.4375 0.234375 "/></g></g></g><g fill="#000000" fill-opacity="1"><g transform="translate(15.360044, 18.894356)"><g><path d="M 5.875 0.234375 C 4.90625 0.234375 4.046875 0.0234375 3.296875 -0.390625 C 2.554688 -0.804688 1.976562 -1.382812 1.5625 -2.125 C 1.144531 -2.875 0.9375 -3.722656 0.9375 -4.671875 C 0.9375 -5.628906 1.144531 -6.472656 1.5625 -7.203125 C 1.976562 -7.929688 2.554688 -8.503906 3.296875 -8.921875 C 4.046875 -9.335938 4.90625 -9.546875 5.875 -9.546875 C 6.84375 -9.546875 7.695312 -9.335938 8.4375 -8.921875 C 9.175781 -8.503906 9.753906 -7.929688 10.171875 -7.203125 C 10.597656 -6.472656 10.8125 -5.628906 10.8125 -4.671875 C 10.8125 -3.722656 10.597656 -2.875 10.171875 -2.125 C 9.753906 -1.382812 9.175781 -0.804688 8.4375 -0.390625 C 7.695312 0.0234375 6.84375 0.234375 5.875 0.234375 Z M 2.4375 -4.671875 C 2.4375 -3.984375 2.582031 -3.378906 2.875 -2.859375 C 3.175781 -2.335938 3.582031 -1.929688 4.09375 -1.640625 C 4.601562 -1.359375 5.195312 -1.21875 5.875 -1.21875 C 6.539062 -1.21875 7.128906 -1.359375 7.640625 -1.640625 C 8.160156 -1.929688 8.566406 -2.335938 8.859375 -2.859375 C 9.148438 -3.378906 9.296875 -3.984375 9.296875 -4.671875 C 9.296875 -5.347656 9.148438 -5.941406 8.859375 -6.453125 C 8.566406 -6.972656 8.160156 -7.378906 7.640625 -7.671875 C 7.128906 -7.960938 6.539062 -8.109375 5.875 -8.109375 C 5.195312 -8.109375 4.601562 -7.960938 4.09375 -7.671875 C 3.582031 -7.378906 3.175781 -6.972656 2.875 -6.453125 C 2.582031 -5.941406 2.4375 -5.347656 2.4375 -4.671875 Z M 2.4375 -4.671875 "/></g></g></g></g></g><g clip-path="url(#b49a4f1b03)"><g clip-path="url(#5ef9d5bb94)"><g transform="matrix(1, 0, 0, 1, 19, 11)"><g clip-path="url(#5169169c6b)"><g clip-path="url(#0d4328d659)"><g clip-path="url(#141580e95d)"><path fill="#ed0000" d="M 0.285156 0.367188 L 6.28125 0.367188 L 6.28125 6.359375 L 0.285156 6.359375 Z M 0.285156 0.367188 " fill-opacity="1" fill-rule="nonzero"/></g></g></g></g></g></g><g clip-path="url(#3f6cfc66f8)"><g clip-path="url(#d2e5ea4fd2)"><g transform="matrix(1, 0, 0, 1, 21, 12)"><g clip-path="url(#2f4728a34c)"><g clip-path="url(#e7af20b178)"><g clip-path="url(#c86e169c23)"><path fill="#ffffff" d="M 4.046875 -0.0117188 L 4.046875 4.5625 L 0.046875 4.5625 L 0.046875 -0.0117188 Z M 4.046875 -0.0117188 " fill-opacity="1" fill-rule="nonzero"/></g></g></g></g></g></g><g clip-path="url(#97b441086e)"><g clip-path="url(#2eb7cb0b83)"><g clip-path="url(#31f6d883e6)"><g clip-path="url(#02ab302eb8)"><path fill="#ed0000" d="M 24.585938 12.898438 C 24.929688 12.808594 25.257812 12.585938 25.484375 12.25 C 25.714844 11.917969 25.804688 11.53125 25.761719 11.179688 C 25.71875 10.828125 25.546875 10.511719 25.25 10.308594 C 24.957031 10.109375 24.597656 10.0625 24.257812 10.152344 C 23.914062 10.242188 23.585938 10.464844 23.359375 10.800781 C 23.128906 11.132812 23.039062 11.519531 23.082031 11.871094 C 23.125 12.222656 23.296875 12.539062 23.59375 12.742188 C 23.886719 12.941406 24.246094 12.988281 24.585938 12.898438 Z M 24.585938 12.898438 " fill-opacity="1" fill-rule="nonzero"/></g></g></g></g><g clip-path="url(#e2688da646)"><g clip-path="url(#f081620fe7)"><g clip-path="url(#cb5c0e64e6)"><g clip-path="url(#f57e6c7c82)"><path fill="#ed0000" d="M 24.660156 9.136719 C 24.601562 9.132812 24.558594 9.082031 24.566406 9.015625 C 24.578125 8.953125 24.632812 8.902344 24.691406 8.902344 C 24.921875 8.90625 25.144531 8.941406 25.355469 9.007812 C 25.566406 9.074219 25.765625 9.171875 25.945312 9.292969 C 26.125 9.417969 26.289062 9.566406 26.425781 9.742188 C 26.566406 9.914062 26.679688 10.109375 26.765625 10.320312 C 26.789062 10.375 26.761719 10.445312 26.703125 10.476562 C 26.648438 10.507812 26.582031 10.488281 26.558594 10.433594 C 26.480469 10.238281 26.378906 10.0625 26.25 9.902344 C 26.125 9.746094 25.976562 9.605469 25.808594 9.492188 C 25.644531 9.378906 25.460938 9.292969 25.269531 9.230469 C 25.074219 9.171875 24.871094 9.140625 24.660156 9.136719 Z M 24.585938 9.707031 C 24.527344 9.707031 24.484375 9.652344 24.492188 9.589844 C 24.5 9.527344 24.558594 9.476562 24.617188 9.476562 C 24.796875 9.480469 24.972656 9.507812 25.140625 9.558594 C 25.308594 9.609375 25.46875 9.6875 25.609375 9.785156 C 25.753906 9.882812 25.882812 10.003906 25.992188 10.140625 C 26.101562 10.277344 26.191406 10.429688 26.261719 10.597656 C 26.28125 10.652344 26.253906 10.722656 26.199219 10.753906 C 26.140625 10.785156 26.078125 10.765625 26.054688 10.710938 C 25.992188 10.5625 25.914062 10.421875 25.816406 10.300781 C 25.71875 10.179688 25.601562 10.070312 25.472656 9.984375 C 25.347656 9.898438 25.203125 9.828125 25.054688 9.78125 C 24.90625 9.734375 24.746094 9.710938 24.585938 9.707031 Z M 24.585938 9.707031 " fill-opacity="1" fill-rule="evenodd"/></g></g></g></g><g clip-path="url(#519dc4c458)"><path fill="#ed0000" d="M 15.023438 0 C 7.097656 0 0.660156 6.433594 0.660156 14.363281 C 0.660156 22.289062 7.097656 28.726562 15.023438 28.726562 C 22.953125 28.726562 29.386719 22.289062 29.386719 14.363281 C 29.386719 6.433594 22.953125 0 15.023438 0 Z M 15.023438 0.796875 C 22.519531 0.796875 28.589844 6.867188 28.589844 14.363281 C 28.589844 21.859375 22.519531 27.929688 15.023438 27.929688 C 7.527344 27.929688 1.460938 21.859375 1.460938 14.363281 C 1.460938 6.867188 7.527344 0.796875 15.023438 0.796875 Z M 15.023438 0.796875 " fill-opacity="1" fill-rule="nonzero"/></g></g></g><g transform="matrix(1, 0, 0, 1, 30, 3)"><g clip-path="url(#5187815387)"><g fill="#ed0000" fill-opacity="1"><g transform="translate(0.758989, 18.795894)"><g><path d="M 1.453125 0 L 1.453125 -12.125 L 4.203125 -12.125 L 4.203125 -2.578125 L 9.515625 -2.578125 L 9.515625 0 Z M 1.453125 0 "/></g></g></g><g fill="#ed0000" fill-opacity="1"><g transform="translate(10.738755, 18.795894)"><g><path d="M 1.3125 0 L 1.3125 -9.09375 L 3.953125 -9.09375 L 3.953125 0 Z M 0.9375 -12.046875 C 0.9375 -12.523438 1.09375 -12.914062 1.40625 -13.21875 C 1.726562 -13.53125 2.140625 -13.6875 2.640625 -13.6875 C 3.140625 -13.6875 3.546875 -13.53125 3.859375 -13.21875 C 4.171875 -12.914062 4.328125 -12.523438 4.328125 -12.046875 C 4.328125 -11.554688 4.171875 -11.15625 3.859375 -10.84375 C 3.546875 -10.539062 3.140625 -10.390625 2.640625 -10.390625 C 2.140625 -10.390625 1.726562 -10.539062 1.40625 -10.84375 C 1.09375 -11.15625 0.9375 -11.554688 0.9375 -12.046875 Z M 0.9375 -12.046875 "/></g></g></g><g fill="#ed0000" fill-opacity="1"><g transform="translate(16.005855, 18.795894)"><g><path d="M 3.9375 0 L 0.15625 -9.09375 L 3.03125 -9.09375 L 4.0625 -6.234375 L 5.265625 -3.15625 L 6.46875 -6.234375 L 7.5 -9.09375 L 10.359375 -9.09375 L 6.5625 0 Z M 3.9375 0 "/></g></g></g><g fill="#ed0000" fill-opacity="1"><g transform="translate(26.089551, 18.795894)"><g><path d="M 5.609375 0.25 C 4.640625 0.25 3.78125 0.046875 3.03125 -0.359375 C 2.289062 -0.765625 1.710938 -1.328125 1.296875 -2.046875 C 0.878906 -2.773438 0.671875 -3.613281 0.671875 -4.5625 C 0.671875 -5.507812 0.878906 -6.335938 1.296875 -7.046875 C 1.722656 -7.765625 2.304688 -8.328125 3.046875 -8.734375 C 3.796875 -9.140625 4.664062 -9.34375 5.65625 -9.34375 C 6.6875 -9.34375 7.582031 -9.109375 8.34375 -8.640625 C 9.101562 -8.179688 9.679688 -7.535156 10.078125 -6.703125 C 10.472656 -5.867188 10.644531 -4.898438 10.59375 -3.796875 L 3.296875 -3.796875 C 3.421875 -3.171875 3.695312 -2.691406 4.125 -2.359375 C 4.550781 -2.035156 5.066406 -1.875 5.671875 -1.875 C 6.109375 -1.875 6.507812 -1.957031 6.875 -2.125 C 7.238281 -2.289062 7.53125 -2.523438 7.75 -2.828125 L 10.421875 -2.828125 C 10.023438 -1.867188 9.40625 -1.113281 8.5625 -0.5625 C 7.71875 -0.0195312 6.734375 0.25 5.609375 0.25 Z M 3.3125 -5.453125 L 8.046875 -5.453125 C 7.890625 -6.015625 7.601562 -6.453125 7.1875 -6.765625 C 6.78125 -7.085938 6.273438 -7.25 5.671875 -7.25 C 5.085938 -7.25 4.582031 -7.085938 4.15625 -6.765625 C 3.738281 -6.453125 3.457031 -6.015625 3.3125 -5.453125 Z M 3.3125 -5.453125 "/></g></g></g><g fill="#ed0000" fill-opacity="1"><g transform="translate(37.334114, 18.795894)"><g><path d="M 5.75 3.84375 C 4.4375 3.84375 3.363281 3.539062 2.53125 2.9375 C 1.707031 2.34375 1.238281 1.519531 1.125 0.46875 L 3.6875 0.46875 C 3.78125 0.863281 4.003906 1.171875 4.359375 1.390625 C 4.710938 1.609375 5.160156 1.71875 5.703125 1.71875 C 7.160156 1.71875 7.890625 0.976562 7.890625 -0.5 L 7.890625 -1.140625 C 7.515625 -0.847656 7.085938 -0.625 6.609375 -0.46875 C 6.128906 -0.320312 5.617188 -0.25 5.078125 -0.25 C 4.222656 -0.25 3.460938 -0.441406 2.796875 -0.828125 C 2.128906 -1.210938 1.609375 -1.75 1.234375 -2.4375 C 0.859375 -3.125 0.671875 -3.910156 0.671875 -4.796875 C 0.671875 -5.691406 0.859375 -6.476562 1.234375 -7.15625 C 1.609375 -7.832031 2.128906 -8.363281 2.796875 -8.75 C 3.460938 -9.144531 4.222656 -9.34375 5.078125 -9.34375 C 5.722656 -9.34375 6.316406 -9.234375 6.859375 -9.015625 C 7.410156 -8.804688 7.882812 -8.5 8.28125 -8.09375 L 8.5625 -9.09375 L 10.515625 -9.09375 L 10.515625 -0.5 C 10.515625 0.394531 10.320312 1.171875 9.9375 1.828125 C 9.550781 2.484375 9 2.984375 8.28125 3.328125 C 7.5625 3.671875 6.71875 3.84375 5.75 3.84375 Z M 3.28125 -4.796875 C 3.28125 -4.097656 3.5 -3.523438 3.9375 -3.078125 C 4.375 -2.640625 4.9375 -2.421875 5.625 -2.421875 C 6.320312 -2.421875 6.890625 -2.640625 7.328125 -3.078125 C 7.773438 -3.523438 8 -4.097656 8 -4.796875 C 8 -5.492188 7.773438 -6.0625 7.328125 -6.5 C 6.890625 -6.9375 6.320312 -7.15625 5.625 -7.15625 C 4.9375 -7.15625 4.375 -6.9375 3.9375 -6.5 C 3.5 -6.0625 3.28125 -5.492188 3.28125 -4.796875 Z M 3.28125 -4.796875 "/></g></g></g><g fill="#ed0000" fill-opacity="1"><g transform="translate(49.185087, 18.795894)"><g><path d="M 1.3125 0 L 1.3125 -9.09375 L 3.28125 -9.09375 L 3.625 -7.890625 C 3.925781 -8.316406 4.296875 -8.625 4.734375 -8.8125 C 5.171875 -9 5.722656 -9.09375 6.390625 -9.09375 L 7.375 -9.09375 L 7.375 -6.703125 L 6.375 -6.703125 C 5.625 -6.703125 5.03125 -6.5 4.59375 -6.09375 C 4.164062 -5.695312 3.953125 -5.003906 3.953125 -4.015625 L 3.953125 0 Z M 1.3125 0 "/></g></g></g><g fill="#ed0000" fill-opacity="1"><g transform="translate(56.479282, 18.795894)"><g><path d="M 4.34375 0.171875 C 3.269531 0.171875 2.421875 -0.078125 1.796875 -0.578125 C 1.171875 -1.078125 0.859375 -1.769531 0.859375 -2.65625 C 0.859375 -3.5 1.140625 -4.171875 1.703125 -4.671875 C 2.265625 -5.171875 3.019531 -5.421875 3.96875 -5.421875 L 7.265625 -5.421875 L 7.265625 -5.84375 C 7.265625 -6.289062 7.101562 -6.648438 6.78125 -6.921875 C 6.457031 -7.191406 6.035156 -7.328125 5.515625 -7.328125 C 5.085938 -7.328125 4.722656 -7.226562 4.421875 -7.03125 C 4.117188 -6.832031 3.925781 -6.570312 3.84375 -6.25 L 1.3125 -6.25 C 1.476562 -7.25 1.925781 -8.015625 2.65625 -8.546875 C 3.394531 -9.078125 4.34375 -9.34375 5.5 -9.34375 C 6.851562 -9.34375 7.914062 -9 8.6875 -8.3125 C 9.457031 -7.625 9.84375 -6.675781 9.84375 -5.46875 L 9.84375 0 L 7.890625 0 L 7.59375 -1.0625 C 6.789062 -0.238281 5.707031 0.171875 4.34375 0.171875 Z M 3.46875 -2.75 C 3.46875 -2.4375 3.601562 -2.1875 3.875 -2 C 4.144531 -1.8125 4.503906 -1.71875 4.953125 -1.71875 C 5.609375 -1.71875 6.15625 -1.90625 6.59375 -2.28125 C 7.03125 -2.664062 7.257812 -3.164062 7.28125 -3.78125 L 4.78125 -3.78125 C 4.382812 -3.78125 4.066406 -3.6875 3.828125 -3.5 C 3.585938 -3.3125 3.46875 -3.0625 3.46875 -2.75 Z M 3.46875 -2.75 "/></g></g></g><g fill="#ed0000" fill-opacity="1"><g transform="translate(67.463951, 18.795894)"><g><path d="M 1.3125 0 L 1.3125 -9.09375 L 3.28125 -9.09375 L 3.53125 -8.15625 C 3.863281 -8.550781 4.269531 -8.847656 4.75 -9.046875 C 5.226562 -9.242188 5.757812 -9.34375 6.34375 -9.34375 C 7.6875 -9.34375 8.6875 -8.84375 9.34375 -7.84375 C 9.707031 -8.320312 10.171875 -8.691406 10.734375 -8.953125 C 11.296875 -9.210938 11.921875 -9.34375 12.609375 -9.34375 C 13.773438 -9.34375 14.703125 -8.976562 15.390625 -8.25 C 16.078125 -7.53125 16.421875 -6.546875 16.421875 -5.296875 L 16.421875 0 L 13.796875 0 L 13.796875 -4.984375 C 13.796875 -5.628906 13.632812 -6.140625 13.3125 -6.515625 C 13 -6.898438 12.570312 -7.09375 12.03125 -7.09375 C 11.457031 -7.09375 11.003906 -6.894531 10.671875 -6.5 C 10.335938 -6.101562 10.171875 -5.578125 10.171875 -4.921875 L 10.171875 0 L 7.578125 0 L 7.578125 -4.984375 C 7.578125 -5.628906 7.414062 -6.140625 7.09375 -6.515625 C 6.78125 -6.898438 6.351562 -7.09375 5.8125 -7.09375 C 5.238281 -7.09375 4.785156 -6.894531 4.453125 -6.5 C 4.117188 -6.101562 3.953125 -5.578125 3.953125 -4.921875 L 3.953125 0 Z M 1.3125 0 "/></g></g></g></g></g></svg>